<svg width="267" height="67" viewBox="0 0 267 67" fill="none" xmlns="http://www.w3.org/2000/svg">
<path opacity="0.37" fill-rule="evenodd" clip-rule="evenodd" d="M213.622 55.2956C216.432 55.2744 219.358 55.1781 222.408 55.0005L222.496 56.4979C219.421 56.677 216.47 56.7742 213.633 56.7955L213.622 55.2956ZM200.878 54.8372C203.667 55.0694 206.582 55.2181 209.638 55.2745L209.611 56.7742C206.523 56.7173 203.575 56.567 200.754 56.332L200.878 54.8372ZM226.216 54.7412C229.038 54.5218 231.962 54.2354 234.997 53.8775L235.173 55.3671C232.119 55.7273 229.175 56.0157 226.332 56.2367L226.216 54.7412ZM188.371 53.1099C191.129 53.6545 194.023 54.1091 197.072 54.4603L196.901 55.9504C193.812 55.5947 190.879 55.134 188.08 54.5814L188.371 53.1099ZM238.837 53.3941C241.649 53.0182 244.552 52.583 247.552 52.0854L247.797 53.5651C244.783 54.0652 241.864 54.5028 239.036 54.8808L238.837 53.3941ZM176.158 49.8812C178.824 50.775 181.617 51.5815 184.566 52.2827L184.219 53.742C181.225 53.0302 178.389 52.2112 175.681 51.3034L176.158 49.8812ZM251.401 51.4217C252.864 51.1601 254.35 50.8841 255.858 50.5934L256.142 52.0663C254.627 52.3583 253.135 52.6355 251.665 52.8983L251.401 51.4217ZM164.442 45.1049C167.015 46.3391 169.684 47.5013 172.488 48.5682L171.955 49.9701C169.108 48.8869 166.4 47.7077 163.793 46.4574L164.442 45.1049ZM153.283 39.0883C155.788 40.5646 158.333 42 160.966 43.3673L160.274 44.6984C157.612 43.3157 155.043 41.8665 152.521 40.3805L153.283 39.0883ZM144.602 33.7942C146.378 34.8962 148.147 35.9934 149.93 37.0779L149.151 38.3594C147.362 37.2712 145.584 36.1686 143.805 35.0651C143.082 34.6167 142.359 34.1682 141.634 33.7204L142.423 32.4445C143.151 32.8949 143.877 33.345 144.602 33.7942ZM131.432 25.9208C134.055 27.3791 136.59 28.8792 139.079 30.392L138.3 31.6737C135.821 30.1669 133.304 28.6775 130.704 27.2318L131.432 25.9208ZM119.975 20.2059C122.758 21.4229 125.409 22.7116 127.964 24.0481L127.269 25.3772C124.741 24.0547 122.121 22.7816 119.374 21.5803L119.975 20.2059ZM107.953 15.7483C110.881 16.6446 113.657 17.6273 116.31 18.6785L115.757 20.073C113.14 19.0359 110.402 18.0666 107.514 17.1825L107.953 15.7483ZM10.8583 16.4195C12.3695 16.1286 13.8619 15.849 15.3359 15.5806L15.6047 17.0563C14.1357 17.3239 12.6482 17.6025 11.1418 17.8925L10.8583 16.4195ZM19.2229 14.8909C22.1948 14.3777 25.0896 13.911 27.9103 13.4889L28.1324 14.9724C25.3231 15.3928 22.4394 15.8577 19.4781 16.369L19.2229 14.8909ZM95.4685 12.6851C98.5037 13.2569 101.387 13.9176 104.139 14.6544L103.751 16.1033C101.036 15.3763 98.1891 14.724 95.1908 14.1592L95.4685 12.6851ZM31.843 12.9224C34.8393 12.5079 37.7495 12.1452 40.5776 11.8318L40.7428 13.3227C37.9287 13.6345 35.0319 13.9956 32.0485 14.4083L31.843 12.9224ZM82.8239 10.9348C85.894 11.2176 88.8242 11.5833 91.6287 12.0231L91.3963 13.505C88.6241 13.0702 85.7255 12.7084 82.6862 12.4284L82.8239 10.9348ZM44.5263 11.4209C47.5566 11.1264 50.4894 10.8904 53.3301 10.7095L53.4254 12.2065C50.602 12.3862 47.6857 12.6209 44.6714 12.9139L44.5263 11.4209ZM69.9777 10.2696C73.0574 10.314 76.0117 10.4332 78.8506 10.621L78.7516 12.1177C75.9394 11.9317 73.0109 11.8135 69.9561 11.7694L69.9777 10.2696ZM57.2566 10.4917C60.3194 10.3473 63.2714 10.2693 66.1197 10.2531L66.1283 11.7531C63.3014 11.7691 60.3701 11.8466 57.3272 11.99L57.2566 10.4917Z" fill="#E6E6E6"/>
</svg>
